<svg xmlns="http://www.w3.org/2000/svg" width="84" height="80" viewBox="0 0 84 80" fill="none">
  <path d="M70 6.89014H32.6666V17.9428H37.3333V11.3112H70C71.4 11.3112 72.3333 12.1954 72.3333 13.5217V37.8375C72.3333 39.1638 71.4 40.048 70 40.048H39.6666V55.5217H27.3L18.6666 61.9322V55.5217H11.6666C10.2666 55.5217 9.33329 54.6375 9.33329 53.3112V28.9954C9.33329 27.6691 10.2666 26.7849 11.6666 26.7849H42V22.3638H11.6666C7.69996 22.3638 4.66663 25.2375 4.66663 28.9954V53.3112C4.66663 57.0691 7.69996 59.9428 11.6666 59.9428H14V71.2164L28.7 59.9428H44.3333V44.4691H70C73.9666 44.4691 77 41.5954 77 37.8375V13.5217C77 9.76382 73.9666 6.89014 70 6.89014Z" fill="black"/>
  <path d="M14.4667 50.8795H20.0667L21.4667 47.3426H28.7L30.1 50.8795H35.7L27.7667 31.2058H22.1667L14.4667 50.8795ZM24.9667 36.7321L27.3 43.5848H22.6333L24.9667 36.7321Z" fill="black"/>
  <path d="M46.6666 37.8375C49.2333 37.8375 52.7333 37.1744 56 35.627C59.2666 37.1744 63 37.8375 65.3333 37.8375V33.4165C65.3333 33.4165 63 33.4165 60.4333 32.5323C63.2333 29.8796 65.3333 25.9007 65.3333 20.1533V17.9428H58.3333V13.5217H53.6666V17.9428H46.6666V22.3638H60.4333C59.9666 26.3428 58.1 28.7744 56 30.3217C54.6 29.2165 53.2 27.6691 52.2666 25.6796H47.3666C48.3 28.5533 49.7 30.7638 51.5666 32.5323C49.2333 33.4165 47.1333 33.4165 46.6666 33.4165V37.8375Z" fill="black"/>
</svg>